<svg xmlns="http://www.w3.org/2000/svg" xmlns:xlink="http://www.w3.org/1999/xlink" viewBox="0,0,256,256" width="100px" height="100px" fill-rule="nonzero"><g fill="none" fill-rule="nonzero" stroke="none" stroke-width="1" stroke-linecap="butt" stroke-linejoin="miter" stroke-miterlimit="10" stroke-dasharray="" stroke-dashoffset="0" font-family="none" font-weight="none" font-size="none" text-anchor="none" style="mix-blend-mode: normal"><g transform="scale(2.56,2.56)"><path d="M73.771,20.2c-8.015,-8.106 -18.327,-10.62 -28.665,-9.063c-11.385,0.407 -22.029,6.509 -28.076,16.373c-6.745,11.003 -6.653,26.632 -0.376,37.86c6.57,11.752 21.886,18.441 35.099,16.927c13.927,-1.596 25.252,-11.19 29.664,-24.392c4.12,-12.33 1.687,-28.267 -7.646,-37.705z" fill="#fcc419"></path><path d="M31.363,18.026c0,0 -0.626,0.392 -1.811,1.132c-0.298,0.187 -0.63,0.396 -0.997,0.626c-0.367,0.231 -0.72,0.549 -1.13,0.859c-0.793,0.65 -1.786,1.322 -2.709,2.294c-0.481,0.467 -0.989,0.96 -1.523,1.478c-0.506,0.544 -0.991,1.157 -1.524,1.778c-0.264,0.313 -0.533,0.633 -0.808,0.959c-0.262,0.336 -0.495,0.704 -0.752,1.066c-0.491,0.739 -1.058,1.474 -1.541,2.299c-2.003,3.261 -3.741,7.34 -4.764,12.087c-1.007,4.738 -1.243,10.188 -0.066,15.845c0.184,0.697 0.37,1.4 0.557,2.109c0.204,0.704 0.337,1.439 0.635,2.126c0.266,0.698 0.533,1.402 0.803,2.111c0.143,0.351 0.256,0.718 0.425,1.061l0.52,1.027c1.269,2.798 3.122,5.51 5.362,7.896c4.497,4.791 10.581,8.429 17.41,10.402c3.417,0.982 7.034,1.545 10.736,1.546c3.719,-0.001 7.433,-0.601 11.058,-1.681c7.26,-2.148 13.69,-6.464 18.192,-12.044c2.256,-2.784 4.03,-5.874 5.278,-9.079c1.253,-3.205 1.994,-6.493 2.347,-9.727c0.696,-6.475 -0.161,-12.736 -2.161,-18.137c-1.001,-2.699 -2.226,-5.217 -3.724,-7.436c-1.494,-2.214 -3.179,-4.18 -4.935,-5.846c-1.772,-1.661 -3.605,-3.078 -5.427,-4.275c-1.825,-1.198 -3.672,-2.115 -5.424,-2.887c-3.545,-1.473 -6.795,-2.171 -9.459,-2.435c-2.671,-0.266 -4.749,-0.117 -6.144,-0.006c-1.385,0.187 -2.117,0.285 -2.117,0.285c0,0 0.736,-0.048 2.127,-0.139c1.394,-0.018 3.46,-0.031 6.065,0.388c2.599,0.416 5.729,1.283 9.082,2.889c1.656,0.839 3.39,1.812 5.088,3.05c1.696,1.237 3.387,2.678 5.01,4.341c1.617,1.681 3.104,3.581 4.427,5.719c1.322,2.139 2.379,4.55 3.228,7.114c1.697,5.131 2.31,11.03 1.508,17.03c-0.785,5.995 -3.095,12.09 -7.292,17.08c-4.149,4.999 -10.007,8.883 -16.656,10.851c-3.316,0.989 -6.744,1.552 -10.083,1.573c-3.357,0.023 -6.683,-0.455 -9.842,-1.316c-6.319,-1.729 -12.004,-4.984 -16.214,-9.25c-2.107,-2.141 -3.828,-4.495 -5.1,-7.085l-0.516,-0.94c-0.168,-0.314 -0.281,-0.652 -0.425,-0.974c-0.273,-0.652 -0.544,-1.3 -0.813,-1.942c-0.303,-0.631 -0.444,-1.313 -0.659,-1.965c-0.199,-0.657 -0.397,-1.309 -0.594,-1.956c-1.292,-5.26 -1.29,-10.43 -0.53,-15.004c0.773,-4.581 2.248,-8.602 4.026,-11.869c0.426,-0.827 0.939,-1.567 1.377,-2.314c0.231,-0.366 0.438,-0.74 0.675,-1.082c0.25,-0.333 0.495,-0.659 0.735,-0.978c0.486,-0.634 0.926,-1.264 1.391,-1.827c0.493,-0.539 0.962,-1.052 1.407,-1.538c0.852,-1.015 1.785,-1.732 2.531,-2.427c0.386,-0.332 0.717,-0.672 1.065,-0.924c0.348,-0.252 0.664,-0.48 0.947,-0.685c1.131,-0.82 1.728,-1.253 1.728,-1.253z" fill="#856404"></path><path d="M67.149,58.049c-2.323,-3.995 -5.326,-7.24 -8.645,-10.306c3.043,-3.328 5.659,-7.007 6.782,-11.296c0.821,-3.137 -1.565,-5.097 -4.087,-5.243c-1.323,-1.034 -3.163,-1.378 -5.007,-0.242c-3.191,1.966 -5.796,4.625 -8.2,7.511c-2.389,-2.049 -4.825,-4.037 -7.377,-5.843c-1.875,-1.327 -3.969,-1.042 -5.5,-0.01c-0.813,0.133 -1.623,0.484 -2.363,1.122c-5.884,5.079 2.367,12.042 6.756,15.366c-0.476,0.536 -0.959,1.064 -1.457,1.573c-3.282,3.353 -11.167,12.386 -2.408,14.991c3.156,0.939 5.916,-0.483 8.071,-2.713c1.889,-1.954 3.605,-3.966 5.436,-5.925c4.028,3.377 8.235,6.476 13.289,7.869c3.98,1.096 6.548,-3.693 4.71,-6.854z" fill="#f2f2f2"></path></g></g></svg>